<?xml version="1.0" encoding="utf-8"?>
<!-- Generator: Adobe Illustrator 25.0.1, SVG Export Plug-In . SVG Version: 6.00 Build 0)  -->
<svg version="1.1" id="Logo_GroupeHuit" xmlns="http://www.w3.org/2000/svg" xmlns:xlink="http://www.w3.org/1999/xlink" x="0px"
	 y="0px" viewBox="0 0 248.98 82.03" style="enable-background:new 0 0 248.98 82.03;" xml:space="preserve">
<style type="text/css">
	.st0{fill:#937C7D;}
	.st1{fill:#9185BE;}
	.st2{fill:#0AB1AB;}
	.st3{fill:#016F93;}
</style>
<g>
	<path d="M20.55,50.57c0.34,0.17,0.52,0.43,0.52,0.73v19.48c0,7.72-4.29,10.33-11.82,11.24c-0.38,0.04-0.62-0.09-0.72-0.39
		l-0.28-1.99c0-0.31,0.14-0.44,0.48-0.48c5.49-0.83,8.77-2.13,8.77-7.08v-0.26c-2.05,0.65-4.91,1.04-6.82,1.04
		C3.24,72.87,0,68,0,61.28c0-6.99,3.48-12.1,11.4-12.1C14.26,49.18,17.65,49.48,20.55,50.57 M11.45,51.87
		c-4.58,0-7.87,2.73-7.87,9.24c0,5.94,2.77,9.02,7.49,9.02c1.29,0,4.01-0.22,6.49-1.04V52.73C15.5,52.08,13.11,51.87,11.45,51.87"/>
	<path d="M41.36,54.51c-1.77-1.52-4.1-2.51-6.97-2.51c-0.91,0-2,0-3.29,0.3v19.52c0,0.48-0.14,0.56-0.67,0.56h-2.15
		c-0.43,0-0.62-0.09-0.62-0.56V52.26c0-1.78,0.48-2.56,2.53-2.86c1.43-0.17,2.77-0.26,3.96-0.26c3.72,0,6.82,1,9.34,2.99
		c0.24,0.22,0.24,0.39,0.05,0.61l-1.48,1.74C41.73,54.77,41.59,54.69,41.36,54.51"/>
	<path d="M55.67,72.86c-7.05,0-10.87-4.08-10.87-11.84c0-7.68,4.58-11.88,11.02-11.88c7.1,0,10.92,4.34,10.92,11.75
		C66.73,68.66,62.77,72.86,55.67,72.86 M55.81,51.82c-5.34,0-7.53,4.21-7.53,9.06c0,5.38,1.86,9.33,7.44,9.33
		c5.77,0,7.49-4.69,7.49-9.2C63.2,56.25,61.72,51.82,55.81,51.82"/>
	<path d="M72.65,49.57h2.15c0.52,0,0.67,0.09,0.67,0.56v11.8c0,5.64,1.19,8.07,7.92,8.07c0.76,0,2.81-0.04,5.06-0.43V50.13
		c0-0.48,0.14-0.56,0.67-0.56h2.19c0.43,0,0.67,0.09,0.67,0.56v19.44c0,1.6-0.86,2.56-2.62,2.86c-1.76,0.22-4.67,0.39-6.2,0.39
		c-8.2,0-11.16-2.82-11.16-10.63V50.13C71.98,49.65,72.13,49.57,72.65,49.57"/>
	<path d="M108.19,72.87c-1.86,0-4.1-0.17-6.53-0.83v8.64c0,0.48-0.1,0.52-0.62,0.52h-2.19c-0.43,0-0.67-0.04-0.67-0.52V51.39
		c0-0.35,0.2-0.56,0.53-0.69c3.05-1.21,6.53-1.56,9.58-1.56c7.54,0,10.92,4.85,10.92,11.8C119.2,67.61,115.63,72.87,108.19,72.87
		 M107.71,51.87c-1.72,0-4.34,0.3-6.05,0.95v16.4c2.67,0.83,4.53,0.91,6.01,0.91c4.58,0,7.92-2.56,7.92-9.2
		C115.58,54.12,112.38,51.87,107.71,51.87"/>
	<path d="M144.77,58.85c0,2.43-1.43,2.99-3.2,2.99h-14.55c0,6.07,3.53,8.25,7.96,8.25c2.1,0,4.25-0.52,5.63-1.22
		c0.38-0.17,0.67-0.13,0.81,0.17l0.86,1.52c0.19,0.35,0.1,0.61-0.24,0.74c-2.24,1.21-4.87,1.56-7.3,1.56
		c-7.01,0-11.25-3.56-11.25-11.76c0-7.77,4.57-11.97,10.87-11.97C141.58,49.13,144.77,53.17,144.77,58.85 M134.38,51.82
		c-4.48,0-6.96,3.29-7.2,7.42h14.26C141.44,55.29,139.91,51.82,134.38,51.82"/>
	<path d="M170.63,72.39h-3.76c-0.62,0-0.91-0.09-0.91-0.74V59.5c0-3.95-1.57-6.03-5.58-6.03c-1.67,0-3.62,0.17-4.96,0.69v17.48
		c0,0.65-0.19,0.74-0.91,0.74h-3.72c-0.62,0-0.91-0.09-0.91-0.74V41.41c0-0.65,0.29-0.74,0.91-0.74h3.72c0.72,0,0.91,0.09,0.91,0.74
		v8.5c1.86-0.56,4.25-0.82,5.96-0.82c7.05,0,10.2,3.77,10.2,10.06v12.49C171.58,72.3,171.35,72.39,170.63,72.39"/>
	<path d="M193.38,68.27V50.3c0-0.65,0.19-0.74,0.91-0.74h3.72c0.62,0,0.91,0.09,0.91,0.74v18.57c0,2.04-0.95,3.21-3.19,3.6
		c-1.67,0.22-4.53,0.39-6.2,0.39c-8.58,0-11.78-3.08-11.78-11.11V50.3c0-0.65,0.19-0.74,0.91-0.74h3.72c0.62,0,0.91,0.09,0.91,0.74
		v11.54c0,4.51,1,6.68,6.34,6.68C190.33,68.53,191.67,68.57,193.38,68.27"/>
	<path d="M208.89,46.79c-1.91,0-3.43-1.39-3.43-3.12c0-1.74,1.53-3.12,3.43-3.12c1.91,0,3.44,1.39,3.44,3.12
		C212.33,45.4,210.8,46.79,208.89,46.79 M210.66,72.39h-3.67c-0.62,0-0.91-0.09-0.91-0.74v-21.3c0-0.65,0.29-0.74,0.91-0.74h3.67
		c0.71,0,0.95,0.09,0.95,0.74v21.3C211.61,72.3,211.37,72.39,210.66,72.39"/>
	<path d="M233.46,72.21c-2.15,0.65-4.58,0.65-5.77,0.65c-5.2,0-7.15-2-7.15-6.16V53.47h-3.39c-0.71,0-0.76-0.26-0.76-0.74v-1.78
		c0-0.52,0.14-0.69,0.76-0.82l3.62-0.74l0.62-4.12c0.14-0.65,0.34-0.78,1.05-1l2.76-0.87c0.52-0.13,0.86,0.04,0.86,0.69v5.51h5.1
		c0.71,0,0.76,0.3,0.76,0.69v2.43c0,0.52-0.05,0.74-0.76,0.74h-5.1v12.58c0,1.87,0.95,2.43,2.91,2.43c0.81,0,2.62-0.17,3.58-0.3
		c0.62-0.13,0.76,0.04,0.81,0.43l0.53,2.78C233.93,71.74,234.03,72,233.46,72.21"/>
	<path class="st0" d="M224.03,0c-4.12,3.12-6.91,9.13-6.91,16.01c0,6.89,2.79,12.9,6.91,16.02c-2.19-4.22-3.53-9.84-3.53-16.02
		C220.5,9.84,221.84,4.21,224.03,0"/>
	<path class="st1" d="M221.87,22.65c2.44,0.34,5.12-0.01,7.79-0.98c-0.46-0.68-0.86-1.37-1.23-2.08
		C226.21,20.95,224,21.98,221.87,22.65"/>
	<path class="st1" d="M238.08,16.21c4.88-4.87,7.15-11.09,6.44-16.21c-1.42,4.53-4.46,9.46-8.82,13.83
		c-1.57,1.56-3.21,2.95-4.87,4.16c0.56,0.79,1.16,1.56,1.81,2.33C234.54,19.27,236.39,17.9,238.08,16.21"/>
	<path class="st2" d="M235.15,23.08c-0.9-0.9-1.74-1.83-2.52-2.76c-0.98,0.54-1.98,0.99-2.98,1.35c0.88,1.32,1.91,2.6,3.11,3.8
		c4.87,4.87,11.08,7.14,16.21,6.44C244.45,30.48,239.52,27.45,235.15,23.08"/>
	<path class="st2" d="M226.33,9.26c-0.44,3.21,0.29,6.86,2.1,10.33c0.8-0.49,1.61-1.02,2.4-1.6
		C228.74,15.08,227.22,12.09,226.33,9.26"/>
	<path class="st3" d="M230.83,17.99c-0.79,0.58-1.6,1.11-2.4,1.6c0.37,0.7,0.78,1.4,1.23,2.08c1-0.36,1.99-0.81,2.98-1.35
		C231.99,19.55,231.39,18.77,230.83,17.99"/>
</g>
</svg>
